<svg xmlns="http://www.w3.org/2000/svg" width="153.464" height="132.904" viewBox="0 0 153.464 132.904">
  <g id="Group_2185" data-name="Group 2185" transform="translate(-106.268 -374.271)">
    <path id="Path_13" data-name="Path 13" d="M1014.5,489.771l37.5,64.952-37.5,64.952h-75L902,554.722l37.5-64.952Z" transform="translate(-794 -114)" fill="#64a51c" stroke="#fff" stroke-width="3"/>
    <path id="Path_36" data-name="Path 36" d="M18.249,15.984a.952.952,0,0,0-.932.963H9.737a.948.948,0,1,0,0,1.895h7.58v4.737h-.8a2.994,2.994,0,0,0-.47,5.951l12.206,1.951.577,3.468H22.055a5.7,5.7,0,0,0-5.685,5.685v18h1.895v-18a3.776,3.776,0,0,1,3.79-3.79h7.091l.237,1.417a2.854,2.854,0,0,0,2.8,2.372H44.139a2.854,2.854,0,0,0,2.8-2.372l.237-1.417h7.091a3.778,3.778,0,0,1,3.79,3.79v18h1.895v-18a5.7,5.7,0,0,0-5.685-5.685H47.492l.577-3.468,12.21-1.951a2.995,2.995,0,0,0-.474-5.951h-.8V18.842h7.58a.948.948,0,1,0,0-1.895h-7.58a.948.948,0,1,0-1.895,0h-7.58a.948.948,0,1,0,0,1.895h7.58v4.737h-37.9V18.842h7.58a.948.948,0,1,0,0-1.895h-7.58a.948.948,0,0,0-.963-.963Zm-12.3.963a.947.947,0,1,0,.947.947A.949.949,0,0,0,5.947,16.947Zm24.634,0a.947.947,0,1,0,.947.947A.949.949,0,0,0,30.582,16.947Zm15.16,0a.947.947,0,1,0,.947.947A.949.949,0,0,0,45.741,16.947Zm24.634,0a.947.947,0,1,0,.947.947A.949.949,0,0,0,70.376,16.947ZM16.517,25.474h1.588a.836.836,0,0,0,.307,0H57.9a.836.836,0,0,0,.307,0h1.6a1.1,1.1,0,0,1,.173,2.18L46.426,29.827l-1.355,8.12a.939.939,0,0,1-.932.792H32.184a.939.939,0,0,1-.932-.792L29.9,29.827,16.348,27.654a1.1,1.1,0,0,1,.17-2.18Zm15.959,4.737a.947.947,0,1,0,.947.947A.949.949,0,0,0,32.477,30.211Zm3.79,0a.947.947,0,1,0,.947.947A.949.949,0,0,0,36.267,30.211Zm3.79,0a.947.947,0,1,0,.947.947A.949.949,0,0,0,40.057,30.211Zm3.79,0a.947.947,0,1,0,.947.947A.949.949,0,0,0,43.846,30.211Z" transform="translate(144.838 402.777)" fill="#fff" stroke="#fff" stroke-width="1"/>
  </g>
</svg>
