<svg xmlns="http://www.w3.org/2000/svg" width="63.367" height="63.387" viewBox="0 0 63.367 63.387">
  <path id="Path_42093" data-name="Path 42093" d="M11.544,4A7.566,7.566,0,0,0,4,11.544v48.28a7.567,7.567,0,0,0,7.544,7.544h25.4a1.5,1.5,0,0,0,.492,0h8.561a1.5,1.5,0,0,0,.492,0h13.34a7.567,7.567,0,0,0,7.544-7.544V11.544A7.566,7.566,0,0,0,59.823,4Zm0,3.017h48.28a4.5,4.5,0,0,1,4.526,4.526v48.28a4.5,4.5,0,0,1-4.526,4.526H47.754V43.227h5.763l2.114-10.561H47.754V29.649c0-.842.08-.907.362-1.091a5.9,5.9,0,0,1,2.655-.418H55.3v-8.5l-.86-.41a20.824,20.824,0,0,0-8.192-1.655,9.925,9.925,0,0,0-7.968,3.583,13.412,13.412,0,0,0-2.594,8.487v3.017H31.157V43.227h4.526V64.35H11.544a4.5,4.5,0,0,1-4.526-4.526V11.544A4.5,4.5,0,0,1,11.544,7.017ZM46.245,20.6a15.873,15.873,0,0,1,6.035,1.058v3.469H50.771a7.61,7.61,0,0,0-4.3.9,4.267,4.267,0,0,0-1.735,3.622v6.035h7.21l-.9,4.526H44.736V64.35H38.7V40.21H34.175V35.684H38.7V29.649a10.531,10.531,0,0,1,1.933-6.6A6.656,6.656,0,0,1,46.245,20.6Z" transform="translate(-4 -4)" fill="#fff"/>
</svg>
