<svg xmlns="http://www.w3.org/2000/svg" width="119.464" height="103.459" viewBox="0 0 119.464 103.459">
  <g id="Group_5077" data-name="Group 5077" transform="translate(-337.268 -432.271)">
    <path id="Path_36556" data-name="Path 36556" d="M989,489.771,1018,540l-29,50.229H931L902,540l29-50.229Z" transform="translate(-563 -56)" stroke="#fff" stroke-width="3"/>
    <path id="Path_41550" data-name="Path 41550" d="M9,4A5.015,5.015,0,0,0,4,9V41a5.015,5.015,0,0,0,5,5H25.832a.991.991,0,0,0,.326,0h5.674a.991.991,0,0,0,.326,0H41a5.015,5.015,0,0,0,5-5V9a5.015,5.015,0,0,0-5-5ZM9,6H41a2.986,2.986,0,0,1,3,3V41a2.986,2.986,0,0,1-3,3H33V30h3.82l1.4-7H33V21c0-.557.053-.6.24-.723A3.912,3.912,0,0,1,35,20h3V14.369l-.57-.271A13.792,13.792,0,0,0,32,13a6.578,6.578,0,0,0-5.281,2.375A8.892,8.892,0,0,0,25,21v2H22v7h3V44H9a2.986,2.986,0,0,1-3-3V9A2.986,2.986,0,0,1,9,6Zm23,9a10.521,10.521,0,0,1,4,.7V18H35a5.035,5.035,0,0,0-2.85.6A2.825,2.825,0,0,0,31,21v4h4.779l-.6,3H31V44H27V28H24V25h3V21a6.98,6.98,0,0,1,1.281-4.375A4.414,4.414,0,0,1,32,15Z" transform="translate(372 459)" fill="#fff"/>
  </g>
</svg>
