<svg xmlns="http://www.w3.org/2000/svg" width="119.464" height="103.459" viewBox="0 0 119.464 103.459">
  <g id="Group_2185" data-name="Group 2185" transform="translate(-106.268 -374.271)">
    <path id="Path_13" data-name="Path 13" d="M989,489.771,1018,540l-29,50.229H931L902,540l29-50.229Z" transform="translate(-794 -114)" stroke="#fff" stroke-width="3"/>
    <path id="Path_36" data-name="Path 36" d="M15.246,15.984a.736.736,0,0,0-.721.744H8.664a.733.733,0,1,0,0,1.465h5.862v3.664h-.618a2.316,2.316,0,0,0-.363,4.6l9.44,1.509.446,2.682h-5.24a4.406,4.406,0,0,0-4.4,4.4V48.968h1.465V35.046a2.92,2.92,0,0,1,2.931-2.931h5.484l.183,1.1a2.207,2.207,0,0,0,2.167,1.835h9.245a2.207,2.207,0,0,0,2.167-1.835l.183-1.1H43.1a2.922,2.922,0,0,1,2.931,2.931V48.968H47.5V35.046a4.408,4.408,0,0,0-4.4-4.4h-5.24l.446-2.682,9.442-1.509a2.316,2.316,0,0,0-.366-4.6h-.618V18.194h5.862a.733.733,0,1,0,0-1.465H46.765a.733.733,0,1,0-1.465,0H39.438a.733.733,0,1,0,0,1.465H45.3v3.664H15.991V18.194h5.862a.733.733,0,1,0,0-1.465H15.991a.733.733,0,0,0-.744-.744Zm-9.514.744a.733.733,0,1,0,.733.733A.734.734,0,0,0,5.733,16.728Zm19.051,0a.733.733,0,1,0,.733.733A.734.734,0,0,0,24.783,16.728Zm11.723,0a.733.733,0,1,0,.733.733A.734.734,0,0,0,36.507,16.728Zm19.051,0a.733.733,0,1,0,.733.733A.734.734,0,0,0,55.557,16.728Zm-41.65,6.594h1.228a.646.646,0,0,0,.237,0H45.909a.646.646,0,0,0,.237,0h1.237a.848.848,0,0,1,.134,1.686l-10.481,1.68-1.048,6.279a.726.726,0,0,1-.721.613H26.022a.726.726,0,0,1-.721-.613l-1.045-6.279-10.481-1.68a.848.848,0,0,1,.131-1.686Zm12.342,3.664a.733.733,0,1,0,.733.733A.734.734,0,0,0,26.249,26.986Zm2.931,0a.733.733,0,1,0,.733.733A.734.734,0,0,0,29.18,26.986Zm2.931,0a.733.733,0,1,0,.733.733A.734.734,0,0,0,32.11,26.986Zm2.931,0a.733.733,0,1,0,.733.733A.734.734,0,0,0,35.041,26.986Z" transform="translate(135.355 393.032)" fill="#fff" stroke="#fff" stroke-width="1"/>
  </g>
</svg>
