<svg xmlns="http://www.w3.org/2000/svg" width="119.464" height="103.459" viewBox="0 0 119.464 103.459">
  <g id="Group_2188" data-name="Group 2188" transform="translate(-106.268 -674.271)">
    <path id="Path_36557" data-name="Path 36557" d="M989,489.771,1018,540l-29,50.229H931L902,540l29-50.229Z" transform="translate(-794 186)" stroke="#fff" stroke-width="3"/>
    <g id="Group_2182" data-name="Group 2182" transform="translate(517.301 176.825) rotate(41)">
      <path id="Path_37" data-name="Path 37" d="M87.96,640.866a3.647,3.647,0,0,0-1.548,2.924,3.471,3.471,0,0,0,.62,1.967l3.7,5.045,3.7-5.047a3.472,3.472,0,0,0,.618-1.965,3.662,3.662,0,0,0-1.615-2.974" transform="translate(4.429 23.09)" fill="none" stroke="#fff" stroke-linecap="round" stroke-linejoin="round" stroke-width="2"/>
      <path id="Path_38" data-name="Path 38" d="M89.112,629.792l-7.462,6.585v12.358l7.479-6.6" transform="translate(0 12.837)" fill="none" stroke="#fff" stroke-linecap="round" stroke-linejoin="round" stroke-width="2"/>
      <path id="Path_39" data-name="Path 39" d="M91.5,615.99l-5.923,7.878V657H97.428V623.868Z" transform="translate(3.656)" fill="none" stroke="#fff" stroke-linecap="round" stroke-linejoin="round" stroke-width="2"/>
      <path id="Path_40" data-name="Path 40" d="M91.793,629.792l7.462,6.585v12.358l-7.479-6.6" transform="translate(9.417 12.837)" fill="none" stroke="#fff" stroke-linecap="round" stroke-linejoin="round" stroke-width="2"/>
      <line id="Line_1" data-name="Line 1" x2="11.847" transform="translate(89.238 642.728)" fill="none" stroke="#fff" stroke-linecap="round" stroke-linejoin="round" stroke-width="2"/>
    </g>
  </g>
</svg>
