<svg xmlns="http://www.w3.org/2000/svg" width="366.298" height="127.225" viewBox="0 0 366.298 127.225">
  <g id="Group_5059" data-name="Group 5059" transform="translate(-100.119 -215.99)">
    <path id="Path_41561" data-name="Path 41561" d="M434.9,259.351c7.386,7.59,14.678,15.088,21.976,22.58,2.789,2.863,5.663,5.649,8.338,8.614.727.806,1.454,2.388,1.123,3.158-.344.8-1.968,1.465-3.037,1.472-12.868.087-25.741.223-38.6-.124a12.315,12.315,0,0,1-7.57-3.332c-11.192-11.055-22.029-22.468-33.123-33.624a10.961,10.961,0,0,1-3.495-9c.167-2.918,1.41-4,4.168-3.968,4.871.057,9.747.1,14.616-.028a23.158,23.158,0,0,0,6.257-.925c3.244-1.017,4.752-3.561,4.617-6.906a6.322,6.322,0,0,0-4.914-6.3,8.38,8.38,0,0,0-2.193-.475c-9.457-.032-18.915-.021-28.882-.021v4.525q0,27.173,0,54.347c0,5.273-.6,5.895-5.73,5.9q-17.616.02-35.232-.012c-4.655-.013-5.123-.517-5.124-5.174q-.012-34.482,0-68.964c0-4.338.632-5.053,4.93-5.056q49.287-.031,98.573.027c5.963.012,11.746,1.281,16.669,4.79,12.232,8.717,10.743,26.993-2.783,34.189C442.318,256.724,438.819,257.777,434.9,259.351Z" fill="#fff"/>
    <path id="Path_41562" data-name="Path 41562" d="M269.6,255.651c0-11.609.109-23.219-.065-34.825-.055-3.672,1.437-4.857,4.863-4.835q18.162.119,36.324,0c3.439-.024,4.989,1.275,4.978,4.847q-.107,34.825,0,69.651c.012,3.618-1.572,4.81-4.995,4.784q-18.16-.14-36.323,0c-3.393.021-4.918-1.067-4.854-4.793C269.72,278.87,269.6,267.259,269.6,255.651Z" fill="#fff"/>
    <path id="Path_41563" data-name="Path 41563" d="M403.535,329.141c3.349,4.308,6.483,8.341,9.617,12.374l-.608.95c-5.772,0-11.545.053-17.314-.07-.692-.015-1.493-.886-2.024-1.539-3.147-3.876-6.346-7.722-9.262-11.769a5.742,5.742,0,0,1-.914-4.378c.239-.8,2.331-1.258,3.657-1.482,1.83-.309,3.8.021,5.552-.47.87-.244,1.7-1.641,1.933-2.656.1-.421-1.4-1.686-2.235-1.743-3.1-.214-6.212-.086-9.768-.086-1.221,6.9-2.576,13.725-3.574,20.6-.427,2.94-1.542,4.108-4.56,3.925-3.733-.225-7.492-.121-11.237-.033-2.37.055-3.1-.9-2.677-3.2q2.271-12.326,4.369-24.682c.391-2.329,1.833-2.618,3.765-2.612,11.99.04,23.981-.008,35.972.06,4.882.028,7.769,1.882,8.545,5.171.865,3.668-1.28,7.847-5.163,9.91C406.517,327.988,405.328,328.386,403.535,329.141Z" fill="#fff"/>
    <path id="Path_41564" data-name="Path 41564" d="M242.391,332.328a58.686,58.686,0,0,1-7.484-.1c-1.074-.139-2.715-1.259-2.858-2.135-.3-1.845.175-3.845,2.854-3.85,1.874,0,3.757.066,5.619-.1,2.85-.251,4.232-2.124,4.248-4.793.016-2.712-2.184-3-4.242-3.168-7.946-.633-7.969-.626-9.481,7.133-.907,4.652-1.9,9.3-2.524,13.988-.361,2.717-1.541,3.584-4.153,3.477-3.867-.16-7.746-.078-11.618-.025-2.159.03-2.886-.865-2.5-3,1.5-8.228,2.984-16.458,4.321-24.712.413-2.545,1.957-2.805,4-2.8,11.62.036,23.24-.019,34.86.069,5.127.039,7.736,1.717,8.951,5.316,1.29,3.821-.036,9.122-3.552,11.411a23.5,23.5,0,0,1-8.216,3.11c-2.648.515-5.475.11-8.224.11Z" fill="#fff"/>
    <path id="Path_41565" data-name="Path 41565" d="M362.519,312.794c-1.441,6.942-2.257,13.664-4.31,19.984-2.087,6.42-7.573,9.536-14.18,9.811-7.6.317-15.228.319-22.825-.008-8.021-.344-11.483-4.593-10.533-12.553.59-4.944,1.71-9.822,2.441-14.753.353-2.381,1.642-3.06,3.847-3.017,4.116.079,8.243.164,12.35-.052,3.358-.176,3.71,1.428,3.18,4.129-.84,4.279-1.664,8.568-2.255,12.886-.8,5.842.693,7.424,6.622,7.473,12.082.1,12.424-.167,14.907-12.113.506-2.438.892-4.9,1.34-7.352.924-5.054,1.115-5.209,6.294-4.906C360.12,312.365,360.836,312.535,362.519,312.794Z" fill="#fff"/>
    <path id="Path_41566" data-name="Path 41566" d="M208.674,342.742c-3.9,0-6.751-.4-9.454.071-9.5,1.638-16.268-1.726-20.891-10.167-1.521-2.776-3.947-5.058-6.19-7.855l-13.046,10.965.165.94h7.885c2.624,0,5.262-.152,7.866.082.972.088,2.731,1.345,2.648,1.614-.46,1.5-1.358,4.07-2.136,4.081-9.821.137-19.646-.1-29.47-.258-.067,0-.131-.2-1.411-1.513a22.862,22.862,0,0,0,3.867-2.17c9.546-8.058,19.024-16.2,28.533-24.3,3.585-3.055,7.061-2.76,9.976.844q9.547,11.8,19.052,23.635C206.793,339.616,207.339,340.662,208.674,342.742Z" fill="#fff"/>
    <path id="Path_41567" data-name="Path 41567" d="M438.258,342.724c-4.872,0-9.748.11-14.616-.025-7.4-.206-11.758-4.826-11.756-12.223a17.668,17.668,0,0,1,17.878-18.158c9.244-.126,18.491-.044,27.736-.012,1.669.006,3.72-.436,3.537,2.453-.154,2.454-1.215,3.5-3.775,3.443-5.745-.131-11.494-.074-17.241-.025-5,.042-6.093.931-7.071,5.83-.537,2.688-.944,5.41-1.25,8.135-.345,3.086.976,4.654,4.271,4.587,5.495-.112,11-.121,16.49.023,1.679.044,4.377-1.177,4.349,2.34-.026,3.215-1.888,3.8-4.685,3.7-4.616-.172-9.244-.047-13.867-.047Z" fill="#fff"/>
    <path id="Path_41568" data-name="Path 41568" d="M126,342.72c-4.624,0-9.25.1-13.87-.023-7.72-.209-12.206-5.055-12-12.769.256-9.625,7.379-17.243,16.968-17.543,9.487-.3,18.992-.153,28.485,0,1.013.016,2.788,1.324,2.843,2.126.122,1.764-.246,3.727-3.033,3.667-5.745-.124-11.5-.058-17.242,0-4.827.053-6.189,1.208-7.011,5.938-.492,2.826-.959,5.67-1.179,8.527-.207,2.693,1.049,4.149,4,4.1,5.621-.1,11.246-.036,16.869-.014,1.737.007,3.684-.284,3.523,2.522-.139,2.424-1.128,3.593-3.728,3.524-4.87-.131-9.746-.038-14.619-.038Z" fill="#fff"/>
    <path id="Path_41569" data-name="Path 41569" d="M278.222,318.119H265.663c-.688-5.2-.162-5.839,4.488-5.839q18.166,0,36.332.019c1.331,0,2.661.152,3.948.23.275,5.482.163,5.612-4.507,5.637-9.3.049-9.292.05-10.975,9.338-.733,4.044-1.549,8.073-2.224,12.126-.354,2.129-1.169,3.252-3.614,3.163-4.833-.177-9.676-.052-14.968-.052C275.526,334.4,276.818,326.6,278.222,318.119Z" fill="#fff"/>
    <path id="Path_41570" data-name="Path 41570" d="M458.363,323.251c.481,5.54.167,5.9-4.715,5.912-5.494.008-10.992.1-16.479-.1-.9-.032-2.593-1.52-2.485-2.029.288-1.351,1.319-3.588,2.128-3.62C444,323.133,451.212,323.251,458.363,323.251Z" fill="#fff"/>
    <g id="Group_5055" data-name="Group 5055">
      <path id="Path_41571" data-name="Path 41571" d="M203.583,254.134H191.745a1.566,1.566,0,0,0-1.592.961v.037c-.009.019-.027.019-.036.037l-.444,1.332h14.5c.2,0,.393.023.592.037v-1.221a1.468,1.468,0,0,0-1.184-1.183Z" fill="#64a51c"/>
      <rect id="Rectangle_712" data-name="Rectangle 712" width="11.617" height="6.881" transform="translate(180.016 266.083)" fill="#64a51c"/>
      <path id="Path_41572" data-name="Path 41572" d="M263.751,288.652q-7.021-12.959-13.979-25.953c-7.524-14.025-15-28.076-22.6-42.062-.773-1.423-2.151-3.443-3.374-3.537-5.369-.41-10.76-1.321-15.822,2.272-14.6,10.365-29.435,20.409-44.178,30.578Q135.37,269.56,106.956,289.2a46.356,46.356,0,0,0-4.521,4.074q.2.473.4.945c1.42.108,2.84.309,4.26.311,13.872.011,43.14.037,68.807.033a2.524,2.524,0,0,1-.406-.421,2.908,2.908,0,0,1-.37-2.516v-.037l.3-1.11a7.8,7.8,0,0,1-6.252-7.658V265.169a7.782,7.782,0,0,1,7.695-7.806h4.625l.777-2.183v-.037a12.986,12.986,0,0,1,3.662-5.512,8.3,8.3,0,0,1,5.364-1.739h11.618a7.625,7.625,0,0,1,5.475,2.368h4.773a3.2,3.2,0,0,1,3-2.368h6.992a5.132,5.132,0,0,1,3.183,1.221,6.444,6.444,0,0,1,0,9.4,5.132,5.132,0,0,1-3.183,1.221h-6.992a3.206,3.206,0,0,1-3-2.368H210.6v7.1a1.163,1.163,0,0,1-.037.333c0,.125.037.245.037.37v.481h4.726v16.575H210.6v.7c0,.083,0,.175,0,.259v8.731a3.325,3.325,0,0,1-1.3,2.606c2.1-.006,4.008-.012,5.689-.019v.086c15.113-.142,30.228-.044,45.343-.069C265.274,294.514,266.1,292.992,263.751,288.652Zm-35.39-4.06a1.168,1.168,0,0,1-1.184,1.184h-3.552c-1.738,0-3.061-1.105-4.291-2a14.846,14.846,0,0,0-2.159-1.341V265.444a14.556,14.556,0,0,0,2.233-1.348c1.244-.888,2.5-2,4.217-2h3.552a1.17,1.17,0,0,1,1.184,1.184Z" fill="#64a51c"/>
    </g>
  </g>
</svg>
